<?xml version="1.0" encoding="UTF-8"?>
<svg width="192px" height="192px" viewBox="-27 -35 192 192" version="1.1" xmlns="http://www.w3.org/2000/svg" xmlns:xlink="http://www.w3.org/1999/xlink">
  <g>
    <path d="M103.94307,13.691897 L103.94307,28.229043 L89.40099,28.229043 L89.40099,35.49275 L103.94307,35.49275 L103.94307,50.02517 L111.20683,50.02517 L111.20683,35.49275 L125.74403,35.49275 L125.74403,28.229043 L111.20683,28.229043 L111.20683,13.691897 L103.94307,13.691897 Z M106.88149,0.798495 C123.41167,0.798495 136.80936,14.200945 136.80936,30.726342 C136.80936,47.26121 123.41167,60.65893 106.88149,60.65893 C90.35138,60.65893 76.95369,47.26121 76.95369,30.726342 C76.95369,14.200945 90.35138,0.798495 106.88149,0.798495 L106.88149,0.798495 Z M82.4377371,108.875167 L102.107071,108.875167 L102.107071,119.11302 C102.107071,121.092522 100.507125,122.692469 98.5276875,122.692469 L86.0171207,122.692469 C84.0463039,122.692469 82.4377371,121.092522 82.4377371,119.11302 L82.4377371,108.875167 Z M7.53825474,108.875167 L27.1989668,108.875167 L27.1989668,119.11302 C27.1989668,121.092522 25.5990198,122.692469 23.6282043,122.692469 L11.1090173,122.692469 C9.13820173,122.692469 7.53825474,121.092522 7.53825474,119.11302 L7.53825474,108.875167 Z M92.2745754,71.6194361 C87.2764052,71.6194361 83.2226422,75.6775417 83.2226422,80.6800676 C83.2226422,85.6696819 87.2764052,89.7233111 92.2745754,89.7233111 C97.2770927,89.7233111 101.326509,85.6696819 101.326509,80.6800676 C101.326509,75.6775418 97.2770927,71.6194361 92.2745754,71.6194361 Z M17.3707496,71.6194361 C12.3725767,71.6194361 8.31881638,75.6775417 8.31881638,80.6800676 C8.31881638,85.6696819 12.3725767,89.7233111 17.3707496,89.7233111 C22.3689224,89.7233111 26.4184056,85.6696819 26.4184056,80.6800676 C26.4184056,75.6775418 22.3689224,71.6194361 17.3707496,71.6194361 Z M3.57938289,66.539406 L106.065942,66.539406 C108.041037,66.539406 109.636705,68.1393521 109.636705,70.1143779 L109.636705,101.082449 C109.636705,103.057609 108.041037,104.661897 106.065942,104.661897 L3.57938289,104.661897 C1.59994699,104.661897 0,103.057609 0,101.082449 L0,70.1143779 C0,68.1393521 1.59994699,66.539406 3.57938289,66.539406 Z M24.2103681,33.4452262 L72.6354461,33.4452262 C72.8596961,35.5842374 73.2822952,37.675737 73.8731466,39.6853766 L25.9267215,39.6853766 L16.0899496,62.6451538 L9.29777544,62.6451538 L20.9457892,35.454868 C21.2735569,34.69589 21.9075078,34.1784069 22.6449681,33.9583598 C23.0805216,33.6393465 23.6195841,33.4452262 24.2103681,33.4452262 Z" id="path1"/>
  </g>
</svg>
