<?xml version="1.0" encoding="utf-8"?>
<svg xmlns="http://www.w3.org/2000/svg" height="256" width="256" viewBox="0 0 256 256">
  <g>
    <path id="path1" transform="rotate(0,128,128) translate(63.0968782901764,59) scale(4.3125,4.3125)  " d="M5.4000015,3L5.4000015,14.5 17.5,14.5 17.5,3z M3,0L19.900002,0 19.900002,9.9000092C20.200005,9.8000031 20.5,9.6999969 20.800003,9.6999969 22.300003,9.6999969 23.5,11.100006 23.700005,12.900009L23.700005,13 23.700005,13.199997 23.700005,13.400009 23.700005,24.100006C23.800003,25 24.5,25.699997 25.300003,25.699997 26.099998,25.699997 26.800003,25 26.900002,24.100006L27,20.400009 27,11.699997 24.099998,8 25.5,6.1999969 22.700005,2.9000092 24.200005,1.1999969 30.099998,8.1000061 29.000008,9.3000031 29.000008,23.600006 29.000008,24C29.000008,26.400009 27.300003,28.300003 25.300003,28.300003 23.300003,28.300003 21.599998,26.400009 21.599998,24L21.599998,23.600006 21.599998,14C21.5,12.800003,20.5,12.5,20.5,12.5L19.800003,12.5 19.800003,29.600006 22.700005,29.600006 22.700005,32 0,32 0,29.5 3,29.5z" />
  </g>
</svg>